<svg width="51" height="28" viewBox="0 0 51 28" fill="none" xmlns="http://www.w3.org/2000/svg">
<mask id="mask0_2416_240" style="mask-type:alpha" maskUnits="userSpaceOnUse" x="0" y="0" width="51" height="28">
<rect width="51" height="28" fill="#D9D9D9"/>
</mask>
<g mask="url(#mask0_2416_240)">
<rect x="11" y="1" width="39" height="26" fill="black"/>
<path d="M0.64 26V2H1.76V26H0.64ZM3.0775 11.792C3.0775 10.4693 3.8775 9.808 5.4775 9.808C7.09883 9.808 7.9095 10.4907 7.9095 11.856V18.128C7.88817 18.832 7.66417 19.3333 7.2375 19.632C6.81083 19.9307 6.2775 20.08 5.6375 20.08C4.9975 20.08 4.5175 20.016 4.1975 19.888V24.016C4.1975 24.6347 4.28283 25.0933 4.4535 25.392C4.62417 25.6693 4.9655 25.808 5.4775 25.808C5.9895 25.808 6.33083 25.6693 6.5015 25.392C6.6935 25.0933 6.7895 24.6347 6.7895 24.016V21.84H7.9095V24.144C7.9095 25.488 7.09883 26.16 5.4775 26.16C3.8775 26.16 3.0775 25.456 3.0775 24.048V11.792ZM4.1975 17.904C4.1975 18.5653 4.2615 19.0133 4.3895 19.248C4.53883 19.4827 4.8695 19.6 5.3815 19.6C5.91483 19.6 6.2775 19.4933 6.4695 19.28C6.68283 19.0453 6.7895 18.6187 6.7895 18V11.952C6.7895 11.3333 6.71483 10.896 6.5655 10.64C6.41617 10.384 6.0855 10.256 5.5735 10.256C5.0615 10.256 4.69883 10.3733 4.4855 10.608C4.2935 10.8427 4.1975 11.2693 4.1975 11.888V17.904Z" fill="black"/>
<path d="M17.2533 24.176C17.2533 25.4987 16.4426 26.16 14.8213 26.16C13.2213 26.16 12.4213 25.4773 12.4213 24.112V2H13.5413V9.968C13.9039 9.81867 14.3626 9.744 14.9173 9.744C16.4746 9.744 17.2533 10.4267 17.2533 11.792V24.176ZM16.1333 11.92C16.1333 11.28 16.0586 10.8427 15.9093 10.608C15.7599 10.352 15.4293 10.224 14.9173 10.224C14.4266 10.224 14.0746 10.32 13.8613 10.512C13.6479 10.704 13.5413 11.088 13.5413 11.664V24.016C13.5413 24.6347 13.6159 25.072 13.7653 25.328C13.9146 25.584 14.2453 25.712 14.7573 25.712C15.2693 25.712 15.6213 25.5947 15.8133 25.36C16.0266 25.1253 16.1333 24.6987 16.1333 24.08V11.92ZM19.6655 10V10.032C20.0282 9.88267 20.4868 9.808 21.0415 9.808C22.6202 9.808 23.4095 10.512 23.4095 11.92V14.128H22.2895V11.952C22.2895 11.2907 22.2042 10.832 22.0335 10.576C21.8628 10.2987 21.5215 10.16 21.0095 10.16C20.4975 10.16 20.1455 10.3093 19.9535 10.608C19.7828 10.8853 19.6975 11.3333 19.6975 11.952V26H18.5775V10H19.6655ZM24.7338 26V10H25.8538V26H24.7338ZM24.9578 6.16L24.8938 3.6H25.7258L25.6618 6.16H24.9578ZM27.1713 26V2H28.2913V26H27.1713ZM29.6088 26V2H30.7288V26H29.6088ZM32.0783 17.872C32.0783 16.5493 32.9103 15.888 34.5743 15.888C35.0223 15.888 35.4276 15.952 35.7903 16.08V11.952C35.7903 11.3333 35.7049 10.8853 35.5343 10.608C35.3636 10.3093 35.0223 10.16 34.5103 10.16C33.9983 10.16 33.6463 10.3093 33.4543 10.608C33.2836 10.8853 33.1983 11.3333 33.1983 11.952V13.968H32.0783V11.824C32.0783 10.48 32.8783 9.808 34.4783 9.808C36.0996 9.808 36.9103 10.512 36.9103 11.92V26H35.7903V25.936C35.4276 26.0853 34.9689 26.16 34.4143 26.16C32.8569 26.16 32.0783 25.4773 32.0783 24.112V17.872ZM33.1983 24.016C33.1983 24.6347 33.2729 25.072 33.4223 25.328C33.5716 25.584 33.8916 25.712 34.3823 25.712C34.8729 25.712 35.2143 25.616 35.4062 25.424C35.6196 25.232 35.7476 24.88 35.7903 24.368V18.192C35.7903 17.5093 35.7156 17.04 35.5663 16.784C35.4383 16.5067 35.1076 16.368 34.5743 16.368C34.0623 16.368 33.6996 16.4853 33.4863 16.72C33.2943 16.9333 33.1983 17.3493 33.1983 17.968V24.016ZM41.9145 26V11.92C41.9145 11.28 41.8398 10.8427 41.6905 10.608C41.5412 10.352 41.1998 10.224 40.6665 10.224C40.1545 10.224 39.8025 10.3307 39.6105 10.544C39.4185 10.7573 39.3225 11.184 39.3225 11.824V26H38.2025V10H39.1625V10.032C39.5678 9.84 40.0798 9.744 40.6985 9.744C42.2558 9.744 43.0345 10.416 43.0345 11.76V26H41.9145ZM44.3908 10H45.3508V5.2H46.4708V10H48.3908V10.48H46.4708V23.856C46.4708 25.0293 46.8334 25.616 47.5588 25.616C47.8148 25.616 48.0388 25.584 48.2308 25.52L48.3588 25.872C48.1241 25.9573 47.7508 26 47.2388 26C46.7268 26 46.2788 25.8293 45.8948 25.488C45.5321 25.1253 45.3508 24.624 45.3508 23.984V10.48H44.3908V10Z" fill="white"/>
</g>
</svg>
