<svg width="25" height="25" viewBox="0 0 25 25" fill="none" xmlns="http://www.w3.org/2000/svg">
<path d="M24.6973 23.2382L18.1222 16.6653C19.7786 14.6374 20.5923 12.0509 20.3952 9.4403C20.198 6.8297 19.0052 4.39458 17.0631 2.63822C15.121 0.881856 12.5781 -0.0615041 9.96001 0.00311322C7.34192 0.0677305 4.84872 1.13538 2.99569 2.98541C1.14266 4.83544 0.0714533 7.32644 0.0034472 9.94358C-0.0645589 12.5607 0.875839 15.104 2.63029 17.0477C4.38473 18.9914 6.81912 20.187 9.43033 20.3874C12.0415 20.5878 14.63 19.7777 16.6607 18.1245L23.2358 24.6974C23.4296 24.8912 23.6924 25 23.9665 25C24.2406 25 24.5035 24.8912 24.6973 24.6974C24.8911 24.5037 25 24.2409 25 23.9669C25 23.6929 24.8911 23.4301 24.6973 23.2363V23.2382ZM2.11467 10.2332C2.11504 8.62912 2.59122 7.06114 3.48299 5.72754C4.37475 4.39394 5.64206 3.35463 7.12468 2.74102C8.60729 2.12741 10.2386 1.96705 11.8124 2.28023C13.3862 2.5934 14.8317 3.36605 15.9662 4.50046C17.1008 5.63488 17.8733 7.08011 18.1862 8.65344C18.4992 10.2268 18.3384 11.8575 17.7242 13.3395C17.11 14.8215 16.0701 16.0881 14.7359 16.9793C13.4016 17.8704 11.833 18.3461 10.2283 18.3461C8.07675 18.3441 6.01388 17.4887 4.49265 15.9676C2.97142 14.4465 2.11617 12.3841 2.11467 10.2332V10.2332Z" fill="#434343"/>
</svg>
