<svg width="46" height="46" viewBox="0 0 46 46" fill="none" xmlns="http://www.w3.org/2000/svg">
<circle cx="22.8965" cy="23.2178" r="22.5" fill="url(#paint0_linear_1200_4264)"/>
<g clip-path="url(#clip0_1200_4264)">
<path d="M31.3829 26.938L27.4454 25.2505C27.2771 25.1788 27.0902 25.1637 26.9127 25.2074C26.7351 25.2512 26.5766 25.3514 26.461 25.493L24.7172 27.6235C21.9806 26.3332 19.7782 24.1308 18.4879 21.3942L20.6184 19.6504C20.7603 19.535 20.8607 19.3765 20.9045 19.1989C20.9483 19.0212 20.933 18.8342 20.8609 18.666L19.1734 14.7285C19.0944 14.5473 18.9545 14.3993 18.7781 14.3101C18.6016 14.2209 18.3995 14.196 18.2066 14.2399L14.5504 15.0836C14.3645 15.1266 14.1986 15.2312 14.0798 15.3806C13.9611 15.5299 13.8964 15.7151 13.8965 15.9059C13.8965 24.9235 21.2055 32.2184 30.209 32.2184C30.3999 32.2186 30.5851 32.154 30.7345 32.0352C30.884 31.9164 30.9887 31.7505 31.0316 31.5645L31.8754 27.9083C31.9189 27.7145 31.8936 27.5116 31.8037 27.3345C31.7138 27.1574 31.565 27.0172 31.3829 26.938Z" fill="white"/>
</g>
<defs>
<linearGradient id="paint0_linear_1200_4264" x1="0.396484" y1="0.717773" x2="49.1133" y2="4.44953" gradientUnits="userSpaceOnUse">
<stop stop-color="#005F3C"/>
<stop offset="0.505208" stop-color="#017149"/>
<stop offset="1" stop-color="#00380F"/>
</linearGradient>
<clipPath id="clip0_1200_4264">
<rect width="18" height="18" fill="white" transform="translate(13.8965 14.2178)"/>
</clipPath>
</defs>
</svg>
