<svg width="43" height="43" viewBox="0 0 43 43" fill="none" xmlns="http://www.w3.org/2000/svg">
<path d="M0.533203 21.8564C0.533203 10.2585 9.93522 0.856445 21.5332 0.856445C33.1312 0.856445 42.5332 10.2585 42.5332 21.8564C42.5332 33.4544 33.1312 42.8564 21.5332 42.8564C9.93522 42.8564 0.533203 33.4544 0.533203 21.8564Z" fill="white"/>
<path d="M32.2649 16.6703C32.0073 15.6807 31.2482 14.9014 30.2844 14.6369C28.5377 14.1562 21.533 14.1562 21.533 14.1562C21.533 14.1562 14.5283 14.1562 12.7815 14.6369C11.8176 14.9014 11.0586 15.6807 10.801 16.6703C10.333 18.4639 10.333 22.2062 10.333 22.2062C10.333 22.2062 10.333 25.9485 10.801 27.7422C11.0586 28.7318 11.8176 29.5111 12.7815 29.7757C14.5283 30.2562 21.533 30.2562 21.533 30.2562C21.533 30.2562 28.5377 30.2562 30.2844 29.7757C31.2482 29.5111 32.0073 28.7318 32.2649 27.7422C32.733 25.9485 32.733 22.2062 32.733 22.2062C32.733 22.2062 32.733 18.4639 32.2649 16.6703Z" fill="#005F3C"/>
<path d="M19.4331 26.0566V19.0566L25.0331 22.5568L19.4331 26.0566Z" fill="white"/>
</svg>
