<svg width="21" height="21" viewBox="0 0 21 21" fill="none" xmlns="http://www.w3.org/2000/svg">
<g clip-path="url(#clip0_1891_5764)">
<path d="M10.2351 5.93667L3.83337 11.8683V18.2703C3.83337 18.436 3.8919 18.595 3.99608 18.7122C4.10027 18.8294 4.24158 18.8953 4.38892 18.8953L8.27989 18.8839C8.42675 18.8831 8.56735 18.8169 8.67093 18.6998C8.77452 18.5827 8.83267 18.4242 8.83267 18.2589V14.5203C8.83267 14.3545 8.8912 14.1955 8.99539 14.0783C9.09958 13.9611 9.24088 13.8953 9.38823 13.8953H11.6104C11.7578 13.8953 11.8991 13.9611 12.0033 14.0783C12.1075 14.1955 12.166 14.3545 12.166 14.5203V18.2562C12.1658 18.3384 12.18 18.4199 12.2078 18.496C12.2356 18.572 12.2765 18.6412 12.3281 18.6994C12.3797 18.7577 12.441 18.8039 12.5086 18.8354C12.5761 18.8669 12.6485 18.8832 12.7216 18.8832L16.6111 18.8953C16.7585 18.8953 16.8998 18.8294 17.004 18.7122C17.1082 18.595 17.1667 18.436 17.1667 18.2703V11.864L10.7664 5.93667C10.6911 5.86844 10.5974 5.83123 10.5007 5.83123C10.4041 5.83123 10.3103 5.86844 10.2351 5.93667ZM20.3473 9.96831L17.4445 7.27651V1.86597C17.4445 1.74165 17.4006 1.62242 17.3224 1.53451C17.2443 1.4466 17.1383 1.39722 17.0278 1.39722H15.0834C14.9729 1.39722 14.8669 1.4466 14.7887 1.53451C14.7106 1.62242 14.6667 1.74165 14.6667 1.86597V4.7023L11.558 1.82495C11.2597 1.54877 10.8853 1.39777 10.499 1.39777C10.1126 1.39777 9.73829 1.54877 9.43996 1.82495L0.650727 9.96831C0.608535 10.0075 0.573628 10.0557 0.548 10.1102C0.522372 10.1646 0.506526 10.2241 0.501367 10.2854C0.496207 10.3467 0.501836 10.4086 0.517932 10.4675C0.534027 10.5263 0.560273 10.581 0.595171 10.6285L1.48059 11.8394C1.51539 11.887 1.5582 11.9264 1.60656 11.9554C1.65492 11.9844 1.70789 12.0023 1.76242 12.0082C1.81696 12.0142 1.872 12.0079 1.92439 11.9899C1.97678 11.9718 2.0255 11.9423 2.06774 11.9031L10.2351 4.33511C10.3103 4.26688 10.4041 4.22967 10.5007 4.22967C10.5974 4.22967 10.6911 4.26688 10.7664 4.33511L18.9341 11.9031C18.9762 11.9423 19.0249 11.9719 19.0772 11.99C19.1295 12.0081 19.1845 12.0144 19.239 12.0086C19.2935 12.0028 19.3464 11.985 19.3948 11.9561C19.4431 11.9273 19.486 11.888 19.5209 11.8406L20.4063 10.6296C20.4411 10.5819 20.4673 10.5269 20.4832 10.4678C20.4991 10.4087 20.5045 10.3466 20.499 10.2852C20.4935 10.2237 20.4773 10.1641 20.4512 10.1097C20.4252 10.0553 20.3899 10.0073 20.3473 9.96831Z" fill="#070707"/>
</g>
<defs>
<clipPath id="clip0_1891_5764">
<rect width="20" height="20" fill="white" transform="translate(0.5 0.146057)"/>
</clipPath>
</defs>
</svg>
