<svg width="43" height="43" viewBox="0 0 43 43" fill="none" xmlns="http://www.w3.org/2000/svg">
<circle cx="21.5342" cy="21.8565" r="13.8291" fill="#005F3C"/>
<path fill-rule="evenodd" clip-rule="evenodd" d="M21.5332 0.856445C9.93522 0.856445 0.533203 10.2585 0.533203 21.8564C0.533203 33.4544 9.93522 42.8564 21.5332 42.8564C33.1312 42.8564 42.5332 33.4544 42.5332 21.8564C42.5332 10.2585 33.1312 0.856445 21.5332 0.856445ZM16.9161 10.7241C18.1108 10.6697 18.4925 10.6564 21.5343 10.6564H21.5308C24.5735 10.6564 24.9538 10.6697 26.1485 10.7241C27.3408 10.7787 28.1552 10.9675 28.8692 11.2445C29.6065 11.5303 30.2295 11.913 30.8525 12.536C31.4755 13.1585 31.8582 13.7834 32.1452 14.52C32.4205 15.2322 32.6095 16.046 32.6655 17.2384C32.7192 18.4331 32.7332 18.8148 32.7332 21.8566C32.7332 24.8983 32.7192 25.2791 32.6655 26.4738C32.6095 27.6657 32.4205 28.4798 32.1452 29.1922C31.8582 29.9286 31.4755 30.5535 30.8525 31.176C30.2302 31.799 29.6063 32.1826 28.8699 32.4687C28.1573 32.7456 27.3424 32.9344 26.1501 32.989C24.9554 33.0434 24.5749 33.0567 21.5329 33.0567C18.4913 33.0567 18.1098 33.0434 16.9151 32.989C15.723 32.9344 14.9089 32.7456 14.1963 32.4687C13.4601 32.1826 12.8353 31.799 12.213 31.176C11.5902 30.5535 11.2075 29.9286 10.9212 29.1919C10.6445 28.4798 10.4557 27.6659 10.4009 26.4736C10.3467 25.2789 10.3332 24.8983 10.3332 21.8566C10.3332 18.8148 10.3472 18.4328 10.4006 17.2381C10.4543 16.0463 10.6433 15.2322 10.921 14.5198C11.208 13.7834 11.5906 13.1585 12.2137 12.536C12.8362 11.9132 13.4611 11.5305 14.1977 11.2445C14.9099 10.9675 15.7237 10.7787 16.9161 10.7241Z" fill="white"/>
<path fill-rule="evenodd" clip-rule="evenodd" d="M20.5296 12.6747C20.7247 12.6744 20.9345 12.6745 21.161 12.6746L21.5343 12.6747C24.5247 12.6747 24.8792 12.6854 26.0601 12.7391C27.1521 12.789 27.7448 12.9715 28.1396 13.1248C28.6622 13.3278 29.0349 13.5705 29.4266 13.9625C29.8187 14.3545 30.0613 14.7278 30.2648 15.2505C30.4181 15.6448 30.6008 16.2375 30.6505 17.3295C30.7042 18.5102 30.7158 18.8648 30.7158 21.8539C30.7158 24.8429 30.7042 25.1976 30.6505 26.3783C30.6006 27.4703 30.4181 28.0629 30.2648 28.4573C30.0618 28.9799 29.8187 29.3521 29.4266 29.7439C29.0346 30.1359 28.6625 30.3786 28.1396 30.5816C27.7452 30.7356 27.1521 30.9176 26.0601 30.9675C24.8794 31.0212 24.5247 31.0328 21.5343 31.0328C18.5436 31.0328 18.1892 31.0212 17.0085 30.9675C15.9165 30.9171 15.3238 30.7346 14.9288 30.5813C14.4061 30.3783 14.0328 30.1357 13.6408 29.7437C13.2488 29.3516 13.0061 28.9792 12.8026 28.4563C12.6493 28.062 12.4666 27.4693 12.4169 26.3773C12.3633 25.1966 12.3525 24.842 12.3525 21.8511C12.3525 18.8602 12.3633 18.5074 12.4169 17.3267C12.4669 16.2347 12.6493 15.642 12.8026 15.2472C13.0056 14.7245 13.2488 14.3512 13.6408 13.9592C14.0328 13.5672 14.4061 13.3245 14.9288 13.121C15.3236 12.967 15.9165 12.785 17.0085 12.7349C18.0417 12.6882 18.4421 12.6742 20.5296 12.6719V12.6747ZM27.5128 14.5344C26.7708 14.5344 26.1688 15.1357 26.1688 15.8779C26.1688 16.6199 26.7708 17.2219 27.5128 17.2219C28.2548 17.2219 28.8568 16.6199 28.8568 15.8779C28.8568 15.1359 28.2548 14.5339 27.5128 14.5339V14.5344ZM15.7826 21.8564C15.7826 18.6801 18.3578 16.1048 21.5341 16.1047C24.7105 16.1047 27.2851 18.68 27.2851 21.8564C27.2851 25.0328 24.7107 27.607 21.5343 27.607C18.3579 27.607 15.7826 25.0328 15.7826 21.8564Z" fill="white"/>
<path d="M21.5342 18.123C23.5959 18.123 25.2675 19.7944 25.2675 21.8564C25.2675 23.9182 23.5959 25.5898 21.5342 25.5898C19.4722 25.5898 17.8008 23.9182 17.8008 21.8564C17.8008 19.7944 19.4722 18.123 21.5342 18.123Z" fill="white"/>
</svg>
