<svg width="43" height="43" viewBox="0 0 43 43" fill="none" xmlns="http://www.w3.org/2000/svg">
<path d="M0.0332031 21.8564C0.0332031 10.2585 9.43522 0.856445 21.0332 0.856445C32.6312 0.856445 42.0332 10.2585 42.0332 21.8564C42.0332 33.4544 32.6312 42.8564 21.0332 42.8564C9.43522 42.8564 0.0332031 33.4544 0.0332031 21.8564Z" fill="white"/>
<path d="M21.383 10.6562C14.243 10.6562 8.43311 15.3366 8.43311 21.0895C8.43311 26.247 13.0402 30.5663 19.2634 31.3831C19.6852 31.4733 20.2591 31.6591 20.4044 32.017C20.5349 32.342 20.4898 32.8512 20.4461 33.1795C20.4461 33.1795 20.2941 34.0868 20.2614 34.28C20.205 34.6051 20.0012 35.5512 21.383 34.973C22.7653 34.3948 28.841 30.6134 31.5579 27.5087C33.4342 25.4655 34.3331 23.392 34.3331 21.0895C34.3331 15.3366 28.524 10.6562 21.383 10.6562Z" fill="#005F3C"/>
<path d="M17.7833 18.3564C17.6454 18.3564 17.5332 18.4722 17.5332 18.6145V24.3984C17.5332 24.5409 17.6454 24.6564 17.7833 24.6564H18.6833C18.8213 24.6564 18.9332 24.5409 18.9332 24.3984V18.6145C18.9332 18.4722 18.8213 18.3564 18.6833 18.3564H17.7833Z" fill="white"/>
<path d="M24.9702 18.3564H24.0228C23.8776 18.3564 23.7598 18.4722 23.7598 18.6145V22.0507L21.0628 18.4712C21.0566 18.462 21.0496 18.4534 21.0424 18.445L21.0406 18.4435C21.0354 18.4376 21.0302 18.4325 21.0248 18.4274C21.0232 18.4259 21.0216 18.4246 21.0198 18.4231C21.0154 18.419 21.0108 18.4152 21.0059 18.4117C21.0038 18.4096 21.0015 18.4081 20.9991 18.4063C20.9945 18.4033 20.9901 18.4 20.9854 18.3972C20.9828 18.3954 20.9802 18.3939 20.9774 18.3926C20.9727 18.3898 20.9681 18.387 20.9634 18.3847C20.9605 18.3834 20.958 18.3819 20.9551 18.3809C20.9502 18.3786 20.9453 18.3763 20.9401 18.3745C20.937 18.3735 20.9344 18.3725 20.9315 18.3715C20.9264 18.3697 20.9212 18.3679 20.9157 18.3666C20.9129 18.3656 20.9098 18.3651 20.9067 18.3641C20.9015 18.3631 20.8966 18.3618 20.8917 18.3608C20.888 18.3603 20.8842 18.3598 20.8805 18.3595C20.8759 18.3585 20.8712 18.3582 20.8666 18.3577C20.8622 18.3572 20.8578 18.3572 20.8531 18.357C20.8497 18.357 20.8471 18.3564 20.8438 18.3564H19.8966C19.7514 18.3564 19.6333 18.4722 19.6333 18.6145V24.3984C19.6333 24.5409 19.7514 24.6564 19.8966 24.6564H20.8438C20.9893 24.6564 21.1071 24.5409 21.1071 24.3984V20.9632L23.8074 24.5473C23.8261 24.5732 23.8491 24.5944 23.8742 24.6112C23.875 24.6117 23.876 24.6124 23.8768 24.6132C23.8822 24.6165 23.8877 24.6198 23.8931 24.6229C23.8957 24.6244 23.898 24.6254 23.9006 24.6267C23.9045 24.629 23.9089 24.631 23.913 24.6328C23.9175 24.6346 23.9213 24.6363 23.926 24.6381C23.9286 24.6391 23.9312 24.6402 23.9338 24.6409C23.94 24.6432 23.9457 24.645 23.9516 24.6468C23.9529 24.6468 23.9542 24.6473 23.9555 24.6475C23.977 24.6531 23.9995 24.6564 24.0228 24.6564H24.9702C25.1157 24.6564 25.2333 24.5409 25.2333 24.3984V18.6145C25.2333 18.4722 25.1157 18.3564 24.9702 18.3564Z" fill="white"/>
<path d="M16.5775 23.2081H14.0691V18.615C14.0691 18.4722 13.9543 18.3564 13.813 18.3564H12.8896C12.7481 18.3564 12.6333 18.4722 12.6333 18.615V24.3977V24.3982C12.6333 24.4676 12.6608 24.5305 12.705 24.5768C12.706 24.5781 12.707 24.5793 12.7085 24.5806C12.7097 24.5819 12.711 24.5829 12.7123 24.5842C12.7584 24.629 12.8205 24.6564 12.8894 24.6564H16.5775C16.719 24.6564 16.8333 24.5404 16.8333 24.3977V23.4666C16.8333 23.3239 16.719 23.2081 16.5775 23.2081Z" fill="white"/>
<path d="M29.8773 19.8048C30.0188 19.8048 30.1331 19.6893 30.1331 19.5463V18.6152C30.1331 18.4725 30.0188 18.3564 29.8773 18.3564H26.1894H26.1889C26.1198 18.3564 26.0575 18.3844 26.0113 18.4295C26.0103 18.4305 26.009 18.4313 26.0083 18.4323C26.0068 18.4338 26.0055 18.4353 26.0043 18.4369C25.9604 18.4832 25.9331 18.5458 25.9331 18.615V18.6152V24.3979V24.3982C25.9331 24.4676 25.9606 24.5305 26.0048 24.5768C26.0058 24.5781 26.007 24.5796 26.0083 24.5806C26.0093 24.5819 26.0108 24.5832 26.0121 24.5842C26.058 24.6287 26.1203 24.6564 26.1889 24.6564H29.8773C30.0188 24.6564 30.1331 24.5404 30.1331 24.3979V23.4666C30.1331 23.3241 30.0188 23.2081 29.8773 23.2081H27.3692V22.2305H29.8773C30.0188 22.2305 30.1331 22.1147 30.1331 21.972V21.0409C30.1331 20.8982 30.0188 20.7821 29.8773 20.7821H27.3692V19.8048H29.8773Z" fill="white"/>
</svg>
