<svg width="32" height="32" viewBox="0 0 32 32" fill="none" xmlns="http://www.w3.org/2000/svg">
<path d="M0 16C0 7.16344 7.16344 0 16 0C24.8366 0 32 7.16344 32 16C32 24.8366 24.8366 32 16 32C7.16344 32 0 24.8366 0 16Z" fill="#00B900"/>
<path d="M16.2665 7.4668C10.8265 7.4668 6.3999 11.0328 6.3999 15.416C6.3999 19.3455 9.91006 22.6363 14.6516 23.2586C14.9729 23.3274 15.4102 23.469 15.5209 23.7416C15.6204 23.9893 15.5859 24.3773 15.5526 24.6274C15.5526 24.6274 15.4369 25.3186 15.4119 25.4658C15.369 25.7135 15.2137 26.4344 16.2665 25.9939C17.3196 25.5533 21.9488 22.6722 24.0188 20.3067C25.4483 18.75 26.1332 17.1702 26.1332 15.416C26.1332 11.0328 21.7072 7.4668 16.2665 7.4668Z" fill="white"/>
<path d="M13.5238 13.3335C13.4187 13.3335 13.3333 13.4217 13.3333 13.5301V17.9369C13.3333 18.0455 13.4187 18.1335 13.5238 18.1335H14.2095C14.3147 18.1335 14.3999 18.0455 14.3999 17.9369V13.5301C14.3999 13.4217 14.3147 13.3335 14.2095 13.3335H13.5238Z" fill="#00B900"/>
<path d="M18.9993 13.3335H18.2775C18.1668 13.3335 18.0771 13.4217 18.0771 13.5301V16.1482L16.0223 13.4209C16.0175 13.414 16.0122 13.4074 16.0067 13.401L16.0053 13.3998C16.0014 13.3953 15.9974 13.3915 15.9933 13.3876C15.9921 13.3864 15.9909 13.3855 15.9895 13.3843C15.9862 13.3812 15.9826 13.3783 15.9789 13.3756C15.9773 13.374 15.9755 13.3729 15.9737 13.3715C15.9702 13.3692 15.9668 13.3666 15.9633 13.3645C15.9613 13.3632 15.9593 13.362 15.9572 13.361C15.9536 13.3589 15.9501 13.3568 15.9465 13.355C15.9443 13.354 15.9424 13.3529 15.9402 13.3521C15.9364 13.3504 15.9327 13.3486 15.9288 13.3473C15.9264 13.3465 15.9244 13.3457 15.9222 13.3449C15.9183 13.3436 15.9144 13.3422 15.9102 13.3413C15.908 13.3405 15.9057 13.3401 15.9033 13.3393C15.8994 13.3385 15.8956 13.3376 15.8919 13.3368C15.8891 13.3364 15.8861 13.336 15.8834 13.3358C15.8798 13.335 15.8763 13.3349 15.8727 13.3345C15.8694 13.3341 15.866 13.3341 15.8625 13.3339C15.8599 13.3339 15.8579 13.3335 15.8554 13.3335H15.1337C15.0231 13.3335 14.9331 13.4217 14.9331 13.5301V17.9369C14.9331 18.0455 15.0231 18.1335 15.1337 18.1335H15.8554C15.9662 18.1335 16.056 18.0455 16.056 17.9369V15.3196L18.1134 18.0503C18.1276 18.0701 18.1451 18.0862 18.1643 18.099C18.1649 18.0994 18.1657 18.1 18.1662 18.1005C18.1704 18.1031 18.1745 18.1056 18.1787 18.1079C18.1806 18.1091 18.1824 18.1098 18.1844 18.1108C18.1874 18.1126 18.1907 18.1141 18.1939 18.1155C18.1972 18.1168 18.2002 18.1182 18.2037 18.1195C18.2057 18.1203 18.2077 18.1211 18.2096 18.1217C18.2144 18.1234 18.2187 18.1248 18.2233 18.1261C18.2242 18.1261 18.2252 18.1265 18.2262 18.1267C18.2426 18.131 18.2598 18.1335 18.2775 18.1335H18.9993C19.1102 18.1335 19.1998 18.0455 19.1998 17.9369V13.5301C19.1998 13.4217 19.1102 13.3335 18.9993 13.3335Z" fill="#00B900"/>
<path d="M12.6049 17.03H10.6938V13.5305C10.6938 13.4217 10.6064 13.3335 10.4987 13.3335H9.79516C9.68732 13.3335 9.59985 13.4217 9.59985 13.5305V17.9363V17.9367C9.59985 17.9896 9.62081 18.0375 9.65445 18.0728C9.65521 18.0738 9.65598 18.0748 9.65714 18.0757C9.6581 18.0767 9.65906 18.0775 9.66002 18.0784C9.6952 18.1126 9.74249 18.1335 9.79496 18.1335H12.6049C12.7128 18.1335 12.7999 18.0451 12.7999 17.9363V17.227C12.7999 17.1182 12.7128 17.03 12.6049 17.03Z" fill="#00B900"/>
<path d="M22.7382 14.437C22.8461 14.437 22.9332 14.349 22.9332 14.24V13.5307C22.9332 13.4219 22.8461 13.3335 22.7382 13.3335H19.9285H19.9281C19.8754 13.3335 19.8279 13.3548 19.7927 13.3891C19.792 13.3899 19.791 13.3905 19.7904 13.3913C19.7893 13.3924 19.7883 13.3936 19.7874 13.3948C19.7539 13.43 19.7332 13.4777 19.7332 13.5305V13.5307V17.9365V17.9367C19.7332 17.9896 19.7541 18.0375 19.7877 18.0728C19.7885 18.0738 19.7895 18.0749 19.7904 18.0757C19.7912 18.0767 19.7924 18.0777 19.7933 18.0784C19.8283 18.1124 19.8758 18.1335 19.9281 18.1335H22.7382C22.8461 18.1335 22.9332 18.0451 22.9332 17.9365V17.227C22.9332 17.1184 22.8461 17.03 22.7382 17.03H20.8273V16.2851H22.7382C22.8461 16.2851 22.9332 16.1969 22.9332 16.0882V15.3788C22.9332 15.2701 22.8461 15.1816 22.7382 15.1816H20.8273V14.437H22.7382Z" fill="#00B900"/>
</svg>
