<svg width="46" height="46" viewBox="0 0 46 46" fill="none" xmlns="http://www.w3.org/2000/svg">
<circle cx="22.6562" cy="23.2178" r="22.5" fill="url(#paint0_linear_1200_4265)"/>
<g clip-path="url(#clip0_1200_4265)">
<path d="M31.1922 20.9256C31.3293 20.8166 31.5332 20.9186 31.5332 21.0908V28.2803C31.5332 29.2119 30.7773 29.9678 29.8457 29.9678H15.2207C14.2891 29.9678 13.5332 29.2119 13.5332 28.2803V21.0943C13.5332 20.9186 13.7336 20.8201 13.8742 20.9291C14.6617 21.5408 15.7059 22.3178 19.2918 24.9229C20.0336 25.4643 21.2852 26.6033 22.5332 26.5963C23.7883 26.6068 25.0645 25.4432 25.7781 24.9229C29.3641 22.3178 30.4047 21.5373 31.1922 20.9256ZM22.5332 25.4678C23.3488 25.4818 24.523 24.4412 25.1137 24.0123C29.7789 20.6268 30.134 20.3314 31.2098 19.4877C31.4137 19.3295 31.5332 19.0834 31.5332 18.8232V18.1553C31.5332 17.2236 30.7773 16.4678 29.8457 16.4678H15.2207C14.2891 16.4678 13.5332 17.2236 13.5332 18.1553V18.8232C13.5332 19.0834 13.6527 19.326 13.8566 19.4877C14.9324 20.3279 15.2875 20.6268 19.9527 24.0123C20.5434 24.4412 21.7176 25.4818 22.5332 25.4678Z" fill="white"/>
</g>
<defs>
<linearGradient id="paint0_linear_1200_4265" x1="0.15625" y1="0.717773" x2="48.8731" y2="4.44953" gradientUnits="userSpaceOnUse">
<stop stop-color="#005F3C"/>
<stop offset="0.505208" stop-color="#017149"/>
<stop offset="1" stop-color="#00380F"/>
</linearGradient>
<clipPath id="clip0_1200_4265">
<rect width="18" height="18" fill="white" transform="translate(13.5332 14.2178)"/>
</clipPath>
</defs>
</svg>
