<svg width="89" height="89" viewBox="0 0 89 89" fill="none" xmlns="http://www.w3.org/2000/svg">
<circle cx="44.1596" cy="44.5566" r="43.9365" fill="#00B900" fill-opacity="0.15"/>
<circle cx="44.0962" cy="44.5566" r="35" fill="#00B900"/>
<path d="M35.6275 31.5323C33.4817 31.7721 31.7641 33.4657 31.5158 35.5884C30.8489 41.2906 30.8489 47.051 31.5158 52.7532C31.7641 54.8759 33.4817 56.5695 35.6275 56.8093C41.209 57.4331 46.9833 57.4331 52.5649 56.8093C54.7107 56.5695 56.4283 54.8759 56.6766 52.7532C57.1558 48.656 57.2907 44.5288 57.0812 40.4147C57.0758 40.3084 57.1155 40.2048 57.1907 40.1296L59.1384 38.1819C59.3639 37.9564 59.7491 38.0974 59.773 38.4153C60.1406 43.2996 60.0396 48.2102 59.47 53.0799C59.0672 56.5242 56.3018 59.2217 52.8773 59.6044C47.0881 60.2514 41.1043 60.2514 35.3151 59.6044C31.8906 59.2217 29.1252 56.5242 28.7224 53.0799C28.03 47.1607 28.03 41.1809 28.7224 35.2617C29.1252 31.8174 31.8906 29.12 35.3151 28.7372C41.1043 28.0902 47.0881 28.0902 52.8773 28.7372C54.0834 28.872 55.2077 29.294 56.1759 29.9345C56.3664 30.0606 56.3853 30.3284 56.2238 30.4899L54.7184 31.9953C54.5952 32.1185 54.4043 32.1392 54.2508 32.0569C53.7381 31.7822 53.1684 31.5998 52.5649 31.5323C46.9833 30.9085 41.209 30.9085 35.6275 31.5323Z" fill="white"/>
<path d="M61.028 32.9777C61.5772 32.4285 61.5772 31.5381 61.028 30.9889C60.4789 30.4398 59.5885 30.4398 59.0393 30.9889L43.1587 46.8696L38.528 42.2389C37.9789 41.6898 37.0885 41.6898 36.5393 42.2389C35.9901 42.7881 35.9901 43.6785 36.5393 44.2277L42.1643 49.8527C42.7135 50.4019 43.6039 50.4019 44.153 49.8527L61.028 32.9777Z" fill="white"/>
</svg>
