<svg width="45" height="46" viewBox="0 0 45 46" fill="none" xmlns="http://www.w3.org/2000/svg">
<circle cx="22.5" cy="23.2178" r="22.5" fill="url(#paint0_linear_1200_4263)"/>
<g clip-path="url(#clip0_1200_4263)">
<path d="M22.5 14.0361C20.3253 14.0361 18.5625 16.0193 18.5625 18.4658C18.5625 20.4437 21.1359 24.0486 22.1219 25.3571C22.3216 25.6222 22.6788 25.6222 22.8781 25.3571C23.8641 24.0486 26.4375 20.4437 26.4375 18.4658C26.4375 16.0193 24.6747 14.0361 22.5 14.0361ZM22.5 19.9424C21.775 19.9424 21.1875 19.2814 21.1875 18.4658C21.1875 17.6502 21.775 16.9893 22.5 16.9893C23.225 16.9893 23.8125 17.6502 23.8125 18.4658C23.8125 19.2814 23.225 19.9424 22.5 19.9424ZM14.1288 21.6281C13.9432 21.7116 13.7841 21.8558 13.672 22.0419C13.56 22.2281 13.5 22.4478 13.5 22.6726V31.4729C13.5 31.8709 13.8572 32.143 14.1856 31.9954L18.5 29.7861V21.5919C18.2238 21.0301 17.9978 20.4831 17.8359 19.96L14.1288 21.6281ZM22.5 26.6808C22.0603 26.6808 21.6444 26.4635 21.3591 26.0845C20.7447 25.2689 20.0912 24.3401 19.5 23.3873V29.7858L25.5 32.0358V23.3877C24.9087 24.3401 24.2556 25.2693 23.6409 26.0849C23.3556 26.4635 22.9397 26.6808 22.5 26.6808ZM30.8144 19.7019L26.5 21.9111V32.0361L30.8713 30.0691C31.0568 29.9857 31.2159 29.8416 31.328 29.6554C31.4401 29.4692 31.5 29.2495 31.5 29.0246V20.2243C31.5 19.8264 31.1428 19.5543 30.8144 19.7019Z" fill="white"/>
</g>
<defs>
<linearGradient id="paint0_linear_1200_4263" x1="0" y1="0.717773" x2="48.7168" y2="4.44953" gradientUnits="userSpaceOnUse">
<stop stop-color="#005F3C"/>
<stop offset="0.505208" stop-color="#017149"/>
<stop offset="1" stop-color="#00380F"/>
</linearGradient>
<clipPath id="clip0_1200_4263">
<rect width="18" height="18" fill="white" transform="translate(13.5 14.0361)"/>
</clipPath>
</defs>
</svg>
