<svg width="43" height="43" viewBox="0 0 43 43" fill="none" xmlns="http://www.w3.org/2000/svg">
<circle cx="21.0332" cy="21.1221" r="21" fill="white"/>
<g clip-path="url(#clip0_1135_1434)">
<path d="M27.4397 15.5583C27.3068 15.4896 27.1774 15.4144 27.0521 15.3327C26.6875 15.0917 26.3533 14.8078 26.0566 14.487C25.3142 13.6376 25.037 12.7758 24.9348 12.1725H24.9389C24.8536 11.6717 24.8889 11.3477 24.8942 11.3477H21.5129V24.4226C21.5129 24.5982 21.5129 24.7717 21.5055 24.9431C21.5055 24.9644 21.5035 24.9841 21.5022 25.0071C21.5022 25.0165 21.5022 25.0264 21.5002 25.0362C21.5002 25.0387 21.5002 25.0411 21.5002 25.0436C21.4645 25.5127 21.3142 25.9659 21.0623 26.3633C20.8104 26.7606 20.4647 27.09 20.0556 27.3224C19.6293 27.565 19.1471 27.6922 18.6566 27.6916C17.0812 27.6916 15.8043 26.407 15.8043 24.8205C15.8043 23.234 17.0812 21.9494 18.6566 21.9494C18.9548 21.9491 19.2512 21.996 19.5347 22.0884L19.5388 18.6456C18.678 18.5344 17.8036 18.6028 16.9706 18.8465C16.1376 19.0902 15.3641 19.5038 14.699 20.0614C14.1162 20.5678 13.6262 21.172 13.2511 21.8468C13.1084 22.0929 12.5699 23.0818 12.5046 24.6868C12.4636 25.5977 12.7372 26.5415 12.8676 26.9315V26.9397C12.9497 27.1694 13.2675 27.9532 13.7856 28.614C14.2033 29.144 14.6968 29.6096 15.2502 29.9958V29.9876L15.2584 29.9958C16.8954 31.1082 18.7103 31.0352 18.7103 31.0352C19.0245 31.0224 20.0769 31.0352 21.2721 30.4687C22.5978 29.8408 23.3524 28.9052 23.3524 28.9052C23.8346 28.3462 24.218 27.7091 24.4861 27.0214C24.7921 26.2171 24.8942 25.2524 24.8942 24.8668V17.9303C24.9352 17.9549 25.4816 18.3162 25.4816 18.3162C25.4816 18.3162 26.2687 18.8207 27.4967 19.1492C28.3777 19.383 29.5647 19.4322 29.5647 19.4322V16.0755C29.1488 16.1206 28.3043 15.9894 27.4397 15.5583Z" fill="#005F3C"/>
</g>
<defs>
<clipPath id="clip0_1135_1434">
<rect width="21" height="21" fill="white" transform="translate(10.5332 10.6914)"/>
</clipPath>
</defs>
</svg>
