<svg width="745" height="256" viewBox="0 0 745 256" fill="none" xmlns="http://www.w3.org/2000/svg">
<path d="M240 0H151C145.477 0 141 4.47715 141 10V100C141 105.523 145.477 110 151 110H240C245.523 110 250 105.523 250 100V10C250 4.47715 245.523 0 240 0Z" fill="#06055D"/>
<path d="M99 0H10C4.47715 0 0 4.47715 0 10V100C0 105.523 4.47715 110 10 110H99C104.523 110 109 105.523 109 100V10C109 4.47715 104.523 0 99 0Z" fill="#06055D"/>
<path d="M240 138H151C145.477 138 141 142.477 141 148V237C141 242.523 145.477 247 151 247H240C245.523 247 250 242.523 250 237V148C250 142.477 245.523 138 240 138Z" fill="#06055D"/>
<path d="M99 138H10C4.47715 138 0 142.477 0 148V237C0 242.523 4.47715 247 10 247H99C104.523 247 109 242.523 109 237V148C109 142.477 104.523 138 99 138Z" fill="#06055D"/>
<path d="M380 0H289C283.477 0 279 4.47715 279 10V100C279 105.523 283.477 110 289 110H380C385.523 110 390 105.523 390 100V10C390 4.47715 385.523 0 380 0Z" fill="#06055D"/>
<path d="M380 138H289C283.477 138 279 142.477 279 148V237C279 242.523 283.477 247 289 247H380C385.523 247 390 242.523 390 237V148C390 142.477 385.523 138 380 138Z" fill="#FB5B8D"/>
<path d="M468.75 87.875V99H429.5V9.00001H467.5V19.625H440.625L441.75 22.75V41.875L440.625 45H466V56.125H440.75L441.75 59V84.75L440.625 87.875H468.75ZM509.537 71.5V9.00001H512.287C516.787 9.00001 519.412 9.33334 520.162 10C520.912 10.5833 521.287 12.7917 521.287 16.625V99H517.537C513.37 99 510.787 98.7083 509.787 98.125C508.787 97.4583 507.704 95.4167 506.537 92L490.412 38H489.787V91.375C489.787 95.2083 489.412 97.4583 488.662 98.125C487.912 98.7083 485.287 99 480.787 99H478.162V9.00001H480.912C484.995 9.00001 487.495 9.29167 488.412 9.875C489.329 10.4583 490.454 12.5 491.787 16L508.912 71.5H509.537ZM573.73 87.875V99H534.48V9.00001H572.48V19.625H545.605L546.73 22.75V41.875L545.605 45H570.98V56.125H545.73L546.73 59V84.75L545.605 87.875H573.73ZM588.018 99H585.018V8.87501L602.893 7.5C610.393 7.5 615.559 8.58334 618.393 10.75C619.476 11.5833 620.393 12.3333 621.143 13C621.893 13.6667 622.518 14.6667 623.018 16L624.018 19.5C624.601 21.0833 624.893 23.1667 624.893 25.75V33C624.893 45 623.184 52.5 619.768 55.5C618.268 56.8333 616.309 57.625 613.893 57.875L633.768 99H629.643C625.476 99 622.643 98.625 621.143 97.875C619.643 97.0417 618.268 95.2083 617.018 92.375L601.643 58.25H595.768L596.893 61.375L597.018 91.375C597.018 95.2083 596.643 97.4583 595.893 98.125C595.143 98.7083 592.518 99 588.018 99ZM603.143 47.125C607.643 47.125 610.351 46.2083 611.268 44.375C612.268 42.5417 612.768 39.5417 612.768 35.375C612.768 31.2083 612.726 28.5833 612.643 27.5C612.643 26.3333 612.476 25.0417 612.143 23.625C611.809 22.125 611.309 21.125 610.643 20.625C608.893 19.2917 606.393 18.625 603.143 18.625H595.768L596.893 21.75V44.25L595.893 47.125H603.143ZM655.608 46.125V60.5C655.608 66.3333 655.733 70.25 655.983 72.25C656.317 74.25 656.608 76.25 656.858 78.25C657.192 80.25 657.608 81.75 658.108 82.75C658.692 83.75 659.358 84.7917 660.108 85.875C660.858 86.9583 661.733 87.7083 662.733 88.125C663.733 88.5417 664.9 88.75 666.233 88.75C668.233 88.75 671.733 88.3333 676.733 87.5L675.733 84.375V60.375C675.733 55.7917 676.025 53.125 676.608 52.375C677.275 51.625 679.483 51.25 683.233 51.25H687.358V97.75C685.942 97.9167 683.733 98.2083 680.733 98.625C674.9 99.4583 670.4 99.875 667.233 99.875C664.067 99.875 661.483 99.5833 659.483 99C657.483 98.5 655.733 97.875 654.233 97.125C652.817 96.2917 651.525 95.0833 650.358 93.5C649.275 91.8333 648.358 90.3333 647.608 89C646.858 87.6667 646.233 85.75 645.733 83.25C645.233 80.6667 644.858 78.5417 644.608 76.875C644.358 75.2083 644.15 72.75 643.983 69.5C643.817 66.1667 643.733 63.5833 643.733 61.75V53.25C643.733 46.5 643.775 41.5417 643.858 38.375C644.025 35.125 644.483 31.125 645.233 26.375C645.983 21.5417 647.108 18.0417 648.608 15.875C650.108 13.7083 652.317 11.7917 655.233 10.125C658.233 8.375 661.9 7.5 666.233 7.5L684.858 11.5C684.192 16.25 683.067 19.0417 681.483 19.875C680.733 20.2083 679.525 20.375 677.858 20.375C676.275 20.375 673.983 20.0833 670.983 19.5L666.233 18.625C663.483 18.625 661.442 19.5833 660.108 21.5C659.358 22.5 658.692 23.5 658.108 24.5C657.608 25.4167 657.192 26.875 656.858 28.875C656.608 30.7917 656.4 32.4167 656.233 33.75C655.817 36.1667 655.608 40.2917 655.608 46.125ZM734.856 9.00001C737.856 9.00001 739.815 9.16667 740.731 9.50001C741.731 9.83334 742.231 10.6667 742.231 12C742.231 13.3333 736.773 27.9583 725.856 55.875V99H723.106C718.606 99 715.94 98.7083 715.106 98.125C714.356 97.4583 713.981 95.2083 713.981 91.375V55.75L696.106 9.00001H700.981C704.565 9.00001 706.773 9.29167 707.606 9.875C708.44 10.4583 709.523 12.5 710.856 16L719.106 41.125H720.981L731.606 9.00001H734.856ZM448.775 236.325C448.775 241.692 448.192 244.842 447.025 245.775C445.975 246.592 442.358 247 436.175 247H432.5V121H436.175C442.358 121 445.975 121.467 447.025 122.4C448.192 123.217 448.775 126.308 448.775 131.675V167.025L448.075 171.4H476.95L476.425 167.025V121H480.275C486.458 121 490.075 121.467 491.125 122.4C492.292 123.217 492.875 126.308 492.875 131.675V247H489.375C482.958 247 479.167 246.592 478 245.775C476.95 244.842 476.425 241.692 476.425 236.325V190.65L477.825 186.975H447.375L448.775 191V236.325ZM573.173 247C567.223 247 563.606 246.533 562.323 245.6C561.156 244.667 560.048 241.575 558.998 236.325L553.048 206.75H530.998L523.823 247H519.798C514.198 247 510.639 246.708 509.123 246.125C507.606 245.425 506.848 243.908 506.848 241.575C506.848 239.125 515.714 198.933 533.448 121H550.248L578.948 247H573.173ZM540.973 152.85L534.498 186.975L533.098 189.95H551.123C551.006 189.833 550.714 189.308 550.248 188.375C549.781 187.325 549.548 186.742 549.548 186.625L542.723 152.85H540.973ZM639.174 194.5V121H643.549C649.732 121 653.349 121.467 654.399 122.4C655.565 123.217 656.149 126.308 656.149 131.675V194.5C656.149 212.467 655.682 223.025 654.749 226.175C653.932 229.208 652.999 232.125 651.949 234.925C651.015 237.725 649.79 239.767 648.274 241.05C646.757 242.217 644.89 243.5 642.674 244.9C638.94 247.117 632.815 248.225 624.299 248.225C617.415 248.225 612.632 247.642 609.949 246.475C607.382 245.308 605.34 244.375 603.824 243.675C602.307 242.858 600.965 241.517 599.799 239.65C598.632 237.783 597.64 236.267 596.824 235.1C596.124 233.933 595.54 231.95 595.074 229.15C594.607 226.233 594.199 223.958 593.849 222.325C593.615 220.692 593.44 217.95 593.324 214.1C593.207 210.133 593.149 207.1 593.149 205V121H597.349C603.649 121 607.324 121.467 608.374 122.4C609.424 123.217 609.949 126.308 609.949 131.675V200.1C609.949 212.817 610.707 221.45 612.224 226C613.857 230.433 617.882 232.65 624.299 232.65C626.749 232.65 628.79 232.417 630.424 231.95C632.174 231.367 633.574 230.2 634.624 228.45C635.79 226.7 636.665 225.125 637.249 223.725C637.949 222.208 638.415 219.583 638.649 215.85C638.999 210.367 639.174 203.25 639.174 194.5ZM671.847 229.675C683.513 230.842 692.03 231.425 697.397 231.425C702.763 231.425 706.438 231.017 708.422 230.2C710.522 229.383 712.097 228.45 713.147 227.4C714.197 226.233 714.955 224.542 715.422 222.325C716.005 219.525 716.297 216.083 716.297 212C716.297 207.917 715.305 204.358 713.322 201.325C711.338 198.292 709.472 196.017 707.722 194.5C706.088 192.983 703.055 190.3 698.622 186.45C694.188 182.6 691.038 179.858 689.172 178.225C687.422 176.475 684.913 173.792 681.647 170.175C675.697 163.642 672.722 156.817 672.722 149.7C672.722 137.333 674.005 129.75 676.572 126.95C680.538 122.867 684.797 120.533 689.347 119.95C693.897 119.25 698.738 118.9 703.872 118.9L727.672 123.975C726.738 130.625 725.397 134.533 723.647 135.7C722.83 136.4 721.372 136.75 719.272 136.75C717.288 136.75 714.663 136.4 711.397 135.7L704.747 134.475C697.863 134.475 693.663 135.875 692.147 138.675C691.213 140.192 690.63 141.592 690.397 142.875C690.28 144.158 690.222 146.083 690.222 148.65C690.222 153.433 696.113 160.783 707.897 170.7C713.497 175.133 717.872 178.867 721.022 181.9C724.172 184.933 727.147 188.608 729.947 192.925C732.747 197.242 734.147 201.325 734.147 205.175C734.147 209.025 734.088 212 733.972 214.1C733.972 216.083 733.738 218.883 733.272 222.5C732.922 226 732.338 228.742 731.522 230.725C730.705 232.708 729.48 234.983 727.847 237.55C726.213 240.117 724.23 242.042 721.897 243.325C715.947 246.592 708.83 248.225 700.547 248.225C695.88 248.225 690.455 247.7 684.272 246.65C678.088 245.483 673.947 244.783 671.847 244.55V229.675Z" fill="#06055E"/>
</svg>
